<?xml version="1.0" standalone="no"?>
<!DOCTYPE svg PUBLIC "-//W3C//DTD SVG 20010904//EN"
 "http://www.w3.org/TR/2001/REC-SVG-20010904/DTD/svg10.dtd">
<svg version="1.0" xmlns="http://www.w3.org/2000/svg"
 width="700.000000pt" height="700.000000pt" viewBox="0 0 700.000000 700.000000"
 preserveAspectRatio="xMidYMid meet">
<metadata>
Created by potrace 1.11, written by Peter Selinger 2001-2013
</metadata>
<g transform="translate(0.000000,700.000000) scale(0.100000,-0.100000)"
fill="#000000" stroke="none">
<path d="M1132 5963 c-4 -1 -63 -4 -132 -6 -143 -6 -213 -25 -308 -86 -94 -61
-154 -130 -202 -234 -31 -65 -36 -82 -47 -147 -3 -19 -5 -793 -5 -1720 -1
-1293 2 -1699 11 -1745 33 -161 159 -318 311 -387 114 -52 101 -52 885 -52
402 0 732 -3 735 -7 3 -4 5 -127 5 -273 l0 -266 290 0 c1005 -1 1929 1 1933 4
2 2 4 125 5 272 l2 269 725 1 c399 1 741 4 760 8 105 20 207 72 283 145 61 57
119 138 131 182 4 13 11 33 16 44 23 52 28 144 28 518 3 1703 2 2979 -4 3017
-35 243 -254 440 -509 456 -71 5 -4893 12 -4913 7z m4858 -552 c13 -1 15 -189
15 -1638 l0 -1638 -2505 0 -2505 0 0 1637 c-1 1431 1 1638 14 1640 13 3 4946
2 4981 -1z"/>
</g>
</svg>
